<svg baseProfile="full" height="127.30835348367691" version="1.1" width="196.1705157160759" xmlns="http://www.w3.org/2000/svg" xmlns:ev="http://www.w3.org/2001/xml-events" xmlns:xlink="http://www.w3.org/1999/xlink"><defs /><rect fill="white" height="127.30835348367691" width="196.1705157160759" x="0" y="0" /><path d="M106.29811422899365,29.80807876214385 m0.0,0.0 l-22.823731899261475,1.9290131330490112 -23.4124755859375,5.314387083053589 l-12.50470757484436,4.767709672451019 -12.914053201675415,8.43519389629364 l-5.511225461959839,6.043573617935181 -3.820268213748932,7.813906669616699 l-0.3116522915661335,11.37290358543396 4.0224674344062805,7.535340189933777 l5.470074415206909,5.539972186088562 13.176507949829102,6.38567328453064 l9.956406354904175,2.367146760225296 22.552108764648438,0.19485214725136757 l12.23630428314209,-2.3305532336235046 25.289571285247803,-8.162071108818054 l19.594368934631348,-8.60456645488739 6.239039897918701,-5.488018989562988 l4.276686906814575,-6.090251207351685 m-42.93283462524414,-41.79704189300537 l10.540677309036255,-0.03524810075759888 13.851548433303833,2.8178662061691284 l7.936716079711914,3.3833134174346924 10.161062479019165,8.40580403804779 l11.141395568847656,12.133736610412598 6.042649149894714,9.057542085647583 l3.4623652696609497,10.01940369606018 1.4439311623573303,12.984620332717896 l1.7094686627388,4.873667061328888 -1.0099836438894272,13.632400035858154 m-94.30516242980957,-57.23708152770996 l-0.010385522618889809,3.584277033805847 2.041036933660507,0.5394959449768066 l1.9340156018733978,-1.0126900672912598 -0.36952197551727295,-1.9708603620529175 l-3.798074722290039,0.0049948395462706685 m-5.404567718505859,-0.008867925498634577 l9.026679396629333,-2.478969246149063 7.4197036027908325,-0.14023996889591217 l0.9613558650016785,1.3785909116268158 m2.647637128829956,2.645372748374939 l9.860607385635376,-1.121523305773735 " fill="none" stroke="black" stroke-width="1" /></svg>