<svg baseProfile="full" height="185.3638781583868" version="1.1" width="278.5210294276476" xmlns="http://www.w3.org/2000/svg" xmlns:ev="http://www.w3.org/2001/xml-events" xmlns:xlink="http://www.w3.org/1999/xlink"><defs /><rect fill="white" height="185.3638781583868" width="278.5210294276476" x="0" y="0" /><path d="M228.85815156565513,42.84454511478543 m0.0,0.0 l-0.007936041220091283,-0.7271091639995575 -11.638988256454468,-5.899598002433777 m3.145812749862671,-0.30763329938054085 l-69.28818225860596,-10.038450956344604 -17.310001850128174,-0.8717536926269531 l-13.32148790359497,2.5809749960899353 -2.004065662622452,0.9023362398147583 l-6.3075292110443115,14.135555028915405 -2.649684250354767,21.877868175506592 l-2.029995322227478,-2.1359796822071075 -21.30744695663452,-1.0566295683383942 l-21.40742301940918,2.295157313346863 -18.04733157157898,4.016888439655304 l-11.352734565734863,5.210576057434082 -5.349011421203613,4.16219174861908 l-0.0936967134475708,6.773594617843628 3.6428970098495483,5.8042603731155396 l5.495093464851379,4.803527891635895 5.848333835601807,1.0334870219230652 l-13.344058990478516,0.029084295965731144 -5.432516932487488,4.587624967098236 l-1.0981976985931396,4.112434387207031 2.8498411178588867,5.765608549118042 l6.251041889190674,5.627791881561279 18.68671178817749,5.710973739624023 l32.865920066833496,-0.01708081690594554 36.145734786987305,-4.4261229038238525 l83.78860473632812,-5.627539157867432 23.356435298919678,-4.177301228046417 l17.932099103927612,-5.095415711402893 3.0253005027770996,-1.8916991353034973 l2.7163630723953247,-3.8333985209465027 0.9029770642518997,-10.01220703125 l-2.7306774258613586,-5.365300178527832 -2.7219390869140625,-1.9479316473007202 l-15.67814826965332,-5.8294618129730225 -20.426406860351562,-5.765480995178223 l-14.439055919647217,-1.3722771406173706 -25.511503219604492,-5.186546444892883 m-96.61114692687988,63.76856803894043 l-21.390666961669922,5.586637854576111 -3.9938345551490784,3.6034804582595825 l-1.2981155514717102,5.498849153518677 2.5786972045898438,7.226601243019104 l3.737937808036804,4.117664992809296 10.353262424468994,5.770710110664368 l11.586778163909912,2.934613525867462 17.747020721435547,1.1671890318393707 l12.145731449127197,-0.7891730964183807 8.78044843673706,-2.3796632885932922 l8.42762291431427,-4.50600266456604 3.8196468353271484,-4.338851273059845 l1.4203491806983948,-6.326597332954407 -0.873667448759079,-6.009619832038879 l-3.25725257396698,-3.61491322517395 -4.296683073043823,-2.3531870543956757 l-7.9549407958984375,-2.25625216960907 -9.935749173164368,-0.42514361441135406 l-13.345867395401001,1.9756059348583221 m141.19728088378906,-9.443053603172302 l-4.072408080101013,-2.655053734779358 " fill="none" stroke="black" stroke-width="1" /></svg>