<svg baseProfile="full" height="217.38166487775743" version="1.1" width="169.32283099740744" xmlns="http://www.w3.org/2000/svg" xmlns:ev="http://www.w3.org/2001/xml-events" xmlns:xlink="http://www.w3.org/1999/xlink"><defs /><rect fill="white" height="217.38166487775743" width="169.32283099740744" x="0" y="0" /><path d="M101.53370518586598,184.56351875327528 m0.0,0.0 l-0.5387628078460693,-4.210696220397949 0.008321686764247715,-19.157521724700928 l3.221580386161804,-46.9381046295166 -12.211705446243286,-3.1501853466033936 m19.3815279006958,80.47955513000488 l-1.4646263420581818,-1.263228952884674 -0.013417068403214216,1.6045451164245605 l2.3849233984947205,-0.30027568340301514 -0.006355165969580412,-0.20134717226028442 l-0.7201850414276123,0.9554056078195572 -0.9548301994800568,-0.21003153175115585 l-1.6156518459320068,-2.807186245918274 -0.005386762204580009,-1.4171597361564636 m-83.99913787841797,-97.20376968383789 l14.824168682098389,-8.832502365112305 26.187338829040527,-8.874088525772095 l14.943606853485107,-1.3991793990135193 13.568891286849976,-0.0020618271082639694 l14.065113067626953,5.180432200431824 15.655622482299805,9.402391910552979 l13.603546619415283,12.109462022781372 4.683006107807159,6.663073301315308 l0.21629735827445984,2.7207475900650024 -2.390942871570587,4.543686509132385 l-4.9059754610061646,2.8088802099227905 -12.15650200843811,4.79588657617569 l-17.678515911102295,3.2078301906585693 -14.206068515777588,-0.25552764534950256 l-17.207164764404297,-2.869260013103485 -13.487849235534668,-3.4583699703216553 l-11.15876317024231,-5.291153788566589 -6.761354207992554,-6.667248010635376 l-3.7809595465660095,-6.127474904060364 -2.849487066268921,-10.606677532196045 l0.09521659463644028,-10.7769775390625 1.6161225736141205,-6.418890357017517 l8.76090407371521,-15.718430280685425 9.835026860237122,-11.658965349197388 l16.75626277923584,-12.938251495361328 6.989505290985107,-3.978523015975952 l12.680305242538452,-1.3023261725902557 11.398288011550903,1.4939165115356445 l4.574952721595764,1.9461338222026825 8.930804133415222,6.212812662124634 l6.313133239746094,6.21709942817688 6.4114344120025635,9.453652501106262 l7.596608996391296,20.377390384674072 6.2002575397491455,32.03740119934082 l-0.7020643353462219,11.56986117362976 " fill="none" stroke="black" stroke-width="1" /></svg>