<svg baseProfile="full" height="211.5337646750413" version="1.1" width="342.9279695218429" xmlns="http://www.w3.org/2000/svg" xmlns:ev="http://www.w3.org/2001/xml-events" xmlns:xlink="http://www.w3.org/1999/xlink"><defs /><rect fill="white" height="211.5337646750413" width="342.9279695218429" x="0" y="0" /><path d="M170.85382118821144,62.04398073234188 m0.0,0.0 l-2.30231836438179,-0.7650916278362274 -20.66507339477539,-2.8356212377548218 l-40.82109451293945,-0.4028649628162384 -28.963782787322998,3.140321969985962 l-8.664541244506836,2.8025785088539124 -25.675995349884033,15.416547060012817 l-10.522902011871338,11.09284520149231 -5.381883978843689,10.559308528900146 l-2.856229543685913,11.070414781570435 0.13523828238248825,10.979729890823364 l2.776079773902893,11.851363182067871 6.37897253036499,11.40317678451538 l4.816440641880035,6.642611026763916 7.1038758754730225,6.220088005065918 l18.163152933120728,9.210568070411682 20.14190673828125,6.514992117881775 l45.931992530822754,8.715380430221558 32.21142292022705,2.873436212539673 l25.190587043762207,-0.0005880626122234389 24.33715581893921,-4.344435036182404 l18.943034410476685,-6.464442610740662 14.218233823776245,-6.925688982009888 l7.259728908538818,-5.179716944694519 6.200916767120361,-8.185973167419434 l4.070812463760376,-7.382739186286926 3.312460482120514,-9.12016749382019 l0.6134343892335892,-14.57016110420227 -2.771354019641876,-9.170722365379333 l-7.0162540674209595,-10.922560691833496 -14.625422954559326,-15.204501152038574 l-16.546159982681274,-12.270946502685547 -15.517498254776001,-9.158766269683838 l-24.470887184143066,-10.870988368988037 -15.238927602767944,-4.671065807342529 l-24.533350467681885,-3.4528452157974243 -12.482953071594238,0.0012741867976728827 m-38.52632999420166,73.8747787475586 l-0.005101622082293034,-1.9963039457798004 20.954580307006836,-18.206489086151123 l11.978627443313599,-8.041606545448303 22.22581386566162,-9.77881133556366 l19.325085878372192,-8.068734407424927 17.741724252700806,-5.464934706687927 l20.685970783233643,-4.0596577525138855 17.890762090682983,-1.4956599473953247 m-140.43088912963867,46.32535934448242 l36.007864475250244,-14.025475978851318 95.14986991882324,-31.874818801879883 l48.19093704223633,-20.945000648498535 53.13641548156738,-19.881374835968018 l-3.950754404067993,1.537783145904541 m-134.46186065673828,47.67855644226074 l20.326075553894043,2.7025383710861206 46.791372299194336,10.418105125427246 l5.178108215332031,1.8983793258666992 -2.4596261978149414,0.5627729743719101 m-130.17151832580566,-57.9893159866333 l12.364109754562378,22.71104335784912 41.73816680908203,84.74298477172852 l15.540138483047485,36.988821029663086 m-83.87832641601562,-90.96994400024414 " fill="none" stroke="black" stroke-width="1" /></svg>