<svg baseProfile="full" height="190.20143828121945" version="1.1" width="320.14738060534" xmlns="http://www.w3.org/2000/svg" xmlns:ev="http://www.w3.org/2001/xml-events" xmlns:xlink="http://www.w3.org/1999/xlink"><defs /><rect fill="white" height="190.20143828121945" width="320.14738060534" x="0" y="0" /><path d="M134.29099276661873,41.25213372288272 m0.0,0.0 l-3.969164192676544,0.028954148292541504 -20.11476755142212,3.928214907646179 l-18.539657592773438,5.734269022941589 -25.473875999450684,7.267978191375732 l-29.825239181518555,10.178982019424438 -7.2879558801651,3.714050054550171 l-2.595832943916321,3.3609941601753235 -1.4844994246959686,4.751105308532715 l1.1134623736143112,4.847456514835358 5.500199198722839,7.742157578468323 l6.107227206230164,2.9816043376922607 4.877483248710632,0.7327665388584137 l20.565710067749023,-3.9580324292182922 32.981834411621094,-10.961852073669434 l-5.373128056526184,28.690621852874756 -4.688228666782379,35.83073616027832 l-4.680623710155487,18.8166081905365 40.17780780792236,0.26269007474184036 l15.305176973342896,-2.1407192945480347 18.400604724884033,-0.011466878931969404 l11.806734800338745,-1.5022127330303192 27.37802505493164,-0.7559286057949066 l21.191749572753906,2.1329423785209656 2.9404079914093018,-6.3814592361450195 l0.6782154738903046,-17.580312490463257 -0.47052860260009766,-44.40114974975586 l22.29802131652832,6.125485897064209 31.913516521453857,10.410629510879517 l1.7599540948867798,-1.3483096659183502 3.5255950689315796,-9.276700019836426 l9.952453970909119,-14.35257077217102 6.885709762573242,-12.325127124786377 l-6.490128040313721,-2.386189103126526 -14.48685884475708,-3.5569971799850464 l-21.851675510406494,-8.855781555175781 -20.40112018585205,-6.4826881885528564 l-12.14051604270935,-4.472730755805969 -26.84685707092285,-15.327324867248535 l-12.89260983467102,-3.7981989979743958 -2.286713421344757,4.226946830749512 l-6.016643643379211,5.486007332801819 -3.822271227836609,1.5257519483566284 l-11.887654066085815,3.6334359645843506 -14.01296854019165,1.120811477303505 l-5.539320707321167,-2.1553952991962433 -4.2690154910087585,-3.4221315383911133 l-3.353564739227295,-6.609830260276794 0.8483626693487167,-7.359015941619873 l-3.4553033113479614,-0.36120936274528503 " fill="none" stroke="black" stroke-width="1" /></svg>