<svg baseProfile="full" height="111.44360414647963" version="1.1" width="296.00377045571804" xmlns="http://www.w3.org/2000/svg" xmlns:ev="http://www.w3.org/2001/xml-events" xmlns:xlink="http://www.w3.org/1999/xlink"><defs /><rect fill="white" height="111.44360414647963" width="296.00377045571804" x="0" y="0" /><path d="M57.677048444747925,55.14222428202629 m0.0,0.0 l14.291738271713257,-3.4270530939102173 48.74834060668945,-10.580081939697266 l16.401095390319824,-2.3877203464508057 30.39281129837036,-0.08408702909946442 l32.819952964782715,6.557254195213318 15.443263053894043,5.444628000259399 m-190.77425003051758,7.5557029247283936 l0.6540646404027939,4.138065576553345 7.986305356025696,8.06333303451538 l6.114140748977661,2.5314056873321533 31.182174682617188,5.373662710189819 l62.84798622131348,4.976133406162262 28.64462375640869,0.3897569328546524 l23.39834690093994,-2.368234694004059 46.86563491821289,-10.36756157875061 l24.81602191925049,-12.03521728515625 7.381641268730164,-2.544530928134918 l4.449371695518494,-2.9627031087875366 0.5364486575126648,-4.1512444615364075 l1.1270096898078918,-6.710952520370483 m-138.1431484222412,1.9300371408462524 l17.73125171661377,-9.095319509506226 18.285858631134033,-6.28157377243042 l14.195141792297363,-3.2215338945388794 11.355738639831543,-0.884389728307724 l1.9596663117408752,0.8230866491794586 -0.4847733676433563,1.7625044286251068 l-8.582152724266052,9.797303676605225 -9.19338583946228,5.73908805847168 m51.16365432739258,15.726039409637451 l7.117414474487305,1.1458835005760193 13.352470397949219,0.008149485220201313 l11.465897560119629,-1.2276425957679749 0.8986436575651169,-2.528628706932068 l-0.007956421468406916,-5.340181589126587 -2.6652663946151733,-6.156018376350403 l-5.021117925643921,-4.51088011264801 -13.511544466018677,-7.485632300376892 l-10.403064489364624,-2.039569914340973 -17.399682998657227,0.012707585701718926 m-47.47037887573242,28.12337875366211 l24.64219331741333,20.75148582458496 8.199738264083862,4.574358761310577 l9.891823530197144,2.2681716084480286 -15.588364601135254,-9.644536972045898 l-9.677937626838684,-4.540778994560242 m-100.02765655517578,-27.23618507385254 l-16.598222255706787,1.7833048105239868 -3.4564635157585144,1.2340468168258667 l-2.045326977968216,5.687732100486755 0.3532075881958008,4.143123030662537 l4.731666743755341,6.756997108459473 4.768580794334412,2.285059243440628 l9.831573963165283,2.7601221203804016 20.563530921936035,1.8933625519275665 l11.543059349060059,-0.5611138045787811 4.8656803369522095,-3.022964298725128 l8.202531337738037,-9.041705131530762 1.5602405369281769,-4.320863485336304 l-0.009554800926707685,-5.6227195262908936 -5.42745053768158,-7.027679085731506 " fill="none" stroke="black" stroke-width="1" /></svg>