<svg baseProfile="full" height="168.17494347691536" version="1.1" width="314.2408202390652" xmlns="http://www.w3.org/2000/svg" xmlns:ev="http://www.w3.org/2001/xml-events" xmlns:xlink="http://www.w3.org/1999/xlink"><defs /><rect fill="white" height="168.17494347691536" width="314.2408202390652" x="0" y="0" /><path d="M25,93.98405507206917 m0.0,0.0 l2.5077849626541138,1.2640413641929626 41.65416717529297,20.979673862457275 l32.27279186248779,12.706053256988525 13.632410764694214,3.84369432926178 l48.482065200805664,9.629427194595337 14.097402095794678,0.7679983973503113 l5.257433652877808,-1.7680664360523224 6.27352237701416,-3.757737874984741 m-126.83791160583496,-73.22032928466797 l4.74355012178421,0.2581162750720978 12.837272882461548,4.272527396678925 l22.1323561668396,4.670426845550537 11.80002212524414,2.549119293689728 l60.292296409606934,17.80836582183838 41.62306308746338,13.292251825332642 l37.24841594696045,15.705859661102295 4.265679717063904,2.3941847681999207 l2.262468636035919,4.294414818286896 -0.008588751079514623,1.0485908389091492 m-41.41880989074707,-74.76266860961914 l-0.7537305355072021,-2.7044740319252014 3.6220750212669373,-4.078373610973358 l10.663871765136719,-8.146849274635315 16.822456121444702,-9.078302383422852 l11.716533899307251,-4.540465772151947 10.312374830245972,-2.4115337431430817 l4.485171437263489,0.12442335486412048 4.096924662590027,2.15100035071373 l4.127614796161652,5.888073444366455 1.1038489639759064,6.968364715576172 l-5.228499174118042,25.570683479309082 -7.7322083711624146,16.59961223602295 l-6.901127099990845,10.322201251983643 -8.384393453598022,8.42678427696228 l-7.744743824005127,4.801301062107086 m-37.550411224365234,-18.44447135925293 l24.09320592880249,-3.81099671125412 26.931474208831787,-2.489653527736664 l10.614440441131592,0.05808170884847641 16.828548908233643,2.007802426815033 m-196.63631439208984,32.741196155548096 l-6.276051998138428,3.9655157923698425 -3.3889010548591614,5.852575898170471 l-0.005772779695689678,4.480012059211731 1.104661151766777,1.9217748939990997 l4.342933893203735,2.4480709433555603 5.831624865531921,-0.0004927607369609177 l4.038789868354797,-0.8458544313907623 4.923342764377594,-2.576025128364563 l3.5138285160064697,-3.5266923904418945 -0.36239560693502426,-8.145477771759033 l-2.29294091463089,-2.486480176448822 -3.8184264302253723,-0.8812539279460907 l-4.4438862800598145,0.49773767590522766 m-3.637375831604004,-22.50666618347168 l5.3350019454956055,-0.004099482321180403 11.495246887207031,2.531901001930237 l7.77363657951355,-0.08023388683795929 3.917253315448761,-0.8642704039812088 l7.592795491218567,-4.2498040199279785 0.9199506044387817,-11.894228458404541 " fill="none" stroke="black" stroke-width="1" /></svg>