<svg baseProfile="full" height="111.82426833780482" version="1.1" width="113.43571782112122" xmlns="http://www.w3.org/2000/svg" xmlns:ev="http://www.w3.org/2001/xml-events" xmlns:xlink="http://www.w3.org/1999/xlink"><defs /><rect fill="white" height="111.82426833780482" width="113.43571782112122" x="0" y="0" /><path d="M52.63929687440395,50.88860542746261 m0.0,0.0 l-7.824007272720337,-3.2907837629318237 -5.540626645088196,-0.2361667901277542 l-8.777858018875122,3.411374092102051 -3.353622555732727,2.7627378702163696 l-1.4013540744781494,2.7494633197784424 -0.7418283075094223,9.268234968185425 l1.5563976764678955,5.629916191101074 4.152760803699493,7.352632284164429 l5.9374648332595825,5.81479549407959 7.472485899925232,2.473459243774414 l12.701938152313232,-0.016422655899077654 8.243997693061829,-1.5767371654510498 l9.671506881713867,-4.68241274356842 9.785381555557251,-11.328647136688232 l3.9137843251228333,-12.847646474838257 -0.004855933948419988,-6.496496796607971 l-3.866036534309387,-5.125960111618042 -5.483867526054382,-2.6040446758270264 l-6.420828104019165,-0.27178481221199036 -8.760749101638794,1.5211515128612518 l-5.894178152084351,3.6371836066246033 m0.6420814990997314,0.9897045791149139 l0.6078813225030899,-7.226009964942932 4.511565566062927,-10.848369598388672 l3.9010366797447205,-4.947775900363922 m-3.4932753443717957,7.051858305931091 l4.331302344799042,-3.2632404565811157 5.297217965126038,-1.903391182422638 l1.0991764068603516,2.1668584644794464 -0.0638921931385994,6.05337381362915 l-3.6802899837493896,7.7059608697891235 -3.0183330178260803,3.4733086824417114 l-6.890970468521118,2.8012219071388245 " fill="none" stroke="black" stroke-width="1" /></svg>