<svg baseProfile="full" height="266.92996407218743" version="1.1" width="137.9692855477333" xmlns="http://www.w3.org/2000/svg" xmlns:ev="http://www.w3.org/2001/xml-events" xmlns:xlink="http://www.w3.org/1999/xlink"><defs /><rect fill="white" height="266.92996407218743" width="137.9692855477333" x="0" y="0" /><path d="M25,214.80120874475688 m0.0,0.0 l4.108238518238068,-2.74396151304245 11.28280758857727,-17.680604457855225 l4.426210522651672,-14.440126419067383 2.389858663082123,-10.244477987289429 l3.5639584064483643,-24.787697792053223 5.34826397895813,-26.389482021331787 l0.16591399908065796,10.975124835968018 -5.834077596664429,19.035789966583252 l-3.590068817138672,19.09623622894287 -1.6493809223175049,30.483779907226562 l1.6529595851898193,20.090975761413574 4.349259734153748,11.110622882843018 l6.213339567184448,7.410218715667725 4.468600749969482,2.3132139444351196 l17.15151309967041,2.8933513164520264 20.018649101257324,0.005791958537884057 l10.255429744720459,-3.62717866897583 3.647809624671936,-4.150875806808472 l-0.5250458419322968,-2.0911991596221924 m-40.67978858947754,-154.2821216583252 l0.21865248680114746,-0.5169831961393356 1.0542170703411102,1.7231425642967224 l4.554663598537445,2.8047221899032593 8.696035146713257,1.966881901025772 l6.107836365699768,-0.8209974318742752 2.614508271217346,-1.7356064915657043 l2.329424023628235,-4.175962507724762 0.5242668092250824,-3.8581261038780212 l-3.073744475841522,-3.4497541189193726 -4.751033782958984,-3.3788490295410156 l-18.374000787734985,-7.181117534637451 -8.987382054328918,-2.3517106473445892 l-2.599867582321167,0.0010197650408372283 -1.1727218329906464,2.3530778288841248 l1.7771586775779724,3.135303258895874 3.5255008935928345,2.137598395347595 l8.693181872367859,0.15906646847724915 4.742758870124817,-1.6397172212600708 l4.821041524410248,-5.611794590950012 3.3913996815681458,-7.7071452140808105 l0.6945003569126129,-9.189794063568115 -7.559477686882019,-7.508869171142578 l-5.952627062797546,-3.1691280007362366 -8.645073175430298,-0.9090058505535126 l-5.340263843536377,0.4662422835826874 -13.80059003829956,4.655203819274902 l-3.255153000354767,2.832508385181427 -0.9727667272090912,4.651394784450531 l1.3609705865383148,2.9797792434692383 5.372346043586731,2.7253931760787964 l6.676084995269775,0.03306455910205841 5.286924839019775,-2.7388468384742737 l2.6430007815361023,-3.9437973499298096 -0.007589573506265879,-3.6741524934768677 l-1.6645777225494385,-3.696516752243042 -4.1818249225616455,-5.0642430782318115 l-5.457172393798828,-3.07367742061615 -6.812275648117065,-0.007192294578999281 l-4.869577884674072,1.484806388616562 -2.7209949493408203,2.1273964643478394 l-5.493260622024536,8.401914238929749 " fill="none" stroke="black" stroke-width="1" /></svg>