<svg baseProfile="full" height="97.39093173120636" version="1.1" width="162.00763776898384" xmlns="http://www.w3.org/2000/svg" xmlns:ev="http://www.w3.org/2001/xml-events" xmlns:xlink="http://www.w3.org/1999/xlink"><defs /><rect fill="white" height="97.39093173120636" width="162.00763776898384" x="0" y="0" /><path d="M38.374799800803885,53.00952493969817 m0.0,0.0 l-1.655714511871338,1.1727477610111237 -4.093447327613831,5.842190980911255 l-0.7708456367254257,3.8860607147216797 3.460760712623596,4.7134023904800415 l10.323227643966675,3.3635270595550537 21.117677688598633,0.40347788482904434 l7.375715970993042,-1.2927089631557465 2.0511966943740845,-1.1938001215457916 l2.201642096042633,-4.283288419246674 -0.0101461389567703,-6.2551456689834595 l-4.094600081443787,-6.361947059631348 -4.431755542755127,-3.636486530303955 l-19.832476377487183,-4.828448295593262 -18.808157444000244,0.02562285866588354 l-5.615773797035217,2.462886720895767 -0.5921037495136261,1.2388864159584045 l4.6399348974227905,0.6753312051296234 m81.23467445373535,2.999906837940216 l-1.8808051943778992,1.6113179922103882 0.2614060044288635,4.861883521080017 l3.978990912437439,4.465652108192444 3.5592061281204224,1.4070793986320496 l10.5086350440979,-0.004094543983228505 3.6247020959854126,-1.5677417814731598 l5.386773347854614,-7.012592554092407 0.6941200792789459,-3.7660035490989685 l-1.0316461324691772,-4.759551584720612 -10.252702236175537,-4.4161659479141235 l-5.317956805229187,-0.6255526095628738 -10.90481162071228,0.8500146865844727 l-7.369515895843506,4.2953601479530334 -2.792638838291168,6.513814926147461 m-61.931657791137695,-8.128092288970947 l24.122672080993652,4.630098044872284 48.54811668395996,1.0917708277702332 l3.3880534768104553,0.8602827042341232 m-70.8213758468628,-0.4166215658187866 l9.785768985748291,-11.089218854904175 10.979273319244385,-7.270954251289368 l7.269328832626343,-3.5316216945648193 m3.833361268043518,0.5145510286092758 l5.698594450950623,2.8541886806488037 28.67461919784546,16.773005723953247 l7.547955513000488,2.5787025690078735 m-54.14952278137207,-24.10116672515869 l-0.40855444967746735,8.5001802444458 -1.4423008263111115,3.888077437877655 l-2.8291577100753784,3.0576443672180176 -5.252244472503662,-0.00983809120953083 m-0.9860885143280029,-8.391324281692505 l-0.16571521759033203,-7.773257493972778 -3.007896840572357,-0.5512556433677673 l-0.01884434139356017,3.219120502471924 6.241222023963928,1.231265813112259 l2.83568799495697,-3.9311090111732483 -0.09790405631065369,-1.8061400949954987 l-1.9343924522399902,-0.993448868393898 " fill="none" stroke="black" stroke-width="1" /></svg>