<svg baseProfile="full" height="122.83839380717836" version="1.1" width="126.29941739141941" xmlns="http://www.w3.org/2000/svg" xmlns:ev="http://www.w3.org/2001/xml-events" xmlns:xlink="http://www.w3.org/1999/xlink"><defs /><rect fill="white" height="122.83839380717836" width="126.29941739141941" x="0" y="0" /><path d="M34.990189373493195,47.14776559150778 m0.0,0.0 l-0.39880983531475067,0.38047395646572113 1.3187772035598755,3.0378830432891846 l3.403259813785553,17.65912175178528 6.015188097953796,18.749394416809082 l3.544113337993622,3.574460744857788 8.34865152835846,4.527990818023682 l13.281028270721436,2.76130348443985 10.512126684188843,-0.8757802844047546 l6.743736267089844,-3.340778350830078 5.13795793056488,-5.914710760116577 l5.352300405502319,-12.027522325515747 3.050898313522339,-16.965442895889282 l-1.1894208937883377,-4.507608413696289 -11.847364902496338,-15.546298027038574 l-7.961575388908386,-4.621472954750061 -5.143652558326721,-1.187007874250412 l-13.218525648117065,0.009937077993527055 -11.435388326644897,1.5151786804199219 l-15.324620008468628,6.529138088226318 -9.589300751686096,8.623379468917847 l-0.5895689129829407,7.93437659740448 2.556557357311249,6.321066617965698 m23.34331750869751,-13.845168352127075 l-1.4495804905891418,-12.549089193344116 3.280649781227112,-5.2713000774383545 l10.266050100326538,-7.119290828704834 6.266957521438599,1.7896723747253418 l0.3800404816865921,0.6540238857269287 -1.2120583653450012,2.5019362568855286 l-8.11177372932434,7.647286653518677 -3.819219470024109,5.197101831436157 m-8.68211567401886,6.356896758079529 l1.04910247027874,3.0040499567985535 m14.823029041290283,-0.0009684264659881592 l-0.001865588128566742,3.44835102558136 m-20.161266326904297,8.964120149612427 l2.3703633248806,2.895524799823761 6.107373237609863,2.8345203399658203 l3.5398632287979126,0.007284727180376649 7.1729207038879395,-3.461184501647949 l3.3193975687026978,-5.29251754283905 m-5.596703290939331,7.0889365673065186 l4.862394630908966,6.225289702415466 6.047224998474121,1.546379178762436 m-15.947239398956299,-12.755953073501587 l-5.369770526885986,-0.754072517156601 m5.043919086456299,-0.8723700046539307 l6.84514582157135,-0.0034980906639248133 m-8.196108937263489,3.9650583267211914 l7.363845109939575,1.1267603933811188 " fill="none" stroke="black" stroke-width="1" /></svg>