<svg baseProfile="full" height="133.04022011172492" version="1.1" width="114.4035762239946" xmlns="http://www.w3.org/2000/svg" xmlns:ev="http://www.w3.org/2001/xml-events" xmlns:xlink="http://www.w3.org/1999/xlink"><defs /><rect fill="white" height="133.04022011172492" width="114.4035762239946" x="0" y="0" /><path d="M29.252684226739802,67.22496148955543 m0.0,0.0 l-1.5638433978892863e-05,3.7364643812179565 1.435863971710205,13.275420665740967 l3.5224610567092896,8.904170989990234 4.843641817569733,6.828169822692871 l8.305538892745972,5.557337403297424 6.904542446136475,2.5136953592300415 l12.013390064239502,-0.3118344768881798 6.34649395942688,-2.6971206068992615 l8.230615854263306,-7.508654594421387 5.4781270027160645,-9.689738750457764 l3.070232570171356,-14.636144638061523 -0.0017752934945747256,-9.677345156669617 l-1.0497143864631653,-4.523438513278961 -3.46213161945343,-5.21673858165741 l-3.196941912174225,-2.7412644028663635 -6.749456524848938,-2.460976541042328 l-5.3051841259002686,-0.6631412357091904 -5.326327085494995,0.0027992500690743327 l-5.261098146438599,3.645119071006775 -10.163929462432861,-5.7815021276474 l-7.7223217487335205,-1.271820068359375 -8.537469506263733,2.2235915064811707 l-4.431820511817932,4.471777379512787 -2.273007333278656,3.7699851393699646 l-0.922398567199707,7.211996912956238 1.0906261950731277,4.980999231338501 m33.02243947982788,-13.389548063278198 l-0.902029424905777,-23.739306926727295 6.984966993331909,-1.6842380166053772 l-1.5548837184906006,30.831470489501953 -0.4338511824607849,-15.111173391342163 l2.978367805480957,-12.315980195999146 4.037463366985321,-6.09232485294342 l1.7086350917816162,-0.6656679511070251 7.250525951385498,0.43910127133131027 l3.9463934302330017,3.618595600128174 0.8639805018901825,3.4156793355941772 l-1.6423343122005463,8.92388641834259 -3.6605507135391235,7.028683423995972 " fill="none" stroke="black" stroke-width="1" /></svg>